<?xml version="1.0" encoding="utf-8"?>
<!-- Generator: Adobe Illustrator 27.5.0, SVG Export Plug-In . SVG Version: 6.00 Build 0)  -->
<svg version="1.1" xmlns="http://www.w3.org/2000/svg" xmlns:xlink="http://www.w3.org/1999/xlink" x="0px" y="0px"
	 viewBox="0 0 2200 1466" style="enable-background:new 0 0 2200 1466;" xml:space="preserve">
<g id="background">
	<rect style="fill:#FFFFFF;" width="2200" height="1466"/>
</g>
<g id="Objects">
	<path d="M1023.738,462.853H360.523l-23.554-123.555c-4.425-23.215-24.791-40.065-48.425-40.065H170.049
		c-8.864,0-16.049,7.185-16.049,16.049s7.185,16.049,16.049,16.049h118.495c8.245,0,15.35,5.878,16.894,13.978l101.856,534.301
		l-22.456,41.366c-12.655,23.311-12.113,50.837,1.45,73.631c13.563,22.796,37.496,36.404,64.02,36.404h27.269
		c-25.896,10.402-44.19,35.729-44.19,65.345c0,38.887,31.524,70.411,70.411,70.411s70.411-31.524,70.411-70.411
		c0-29.616-18.294-54.944-44.19-65.345h335.728c-25.896,10.402-44.19,35.729-44.19,65.345c0,38.887,31.524,70.411,70.411,70.411
		s70.411-31.524,70.411-70.411c0-29.616-18.294-54.944-44.19-65.345h63.41c8.863,0,16.049-7.186,16.049-16.049
		s-7.186-16.049-16.049-16.049H450.309c-15.095,0-28.716-7.746-36.435-20.719s-8.027-28.639-0.825-41.905l20.635-38.011h508.337
		c30.522,0,57.449-20.566,65.478-50.013l81.724-299.682c5.611-20.579,1.402-42.105-11.548-59.057
		C1064.726,472.575,1045.067,462.853,1023.738,462.853z M857.252,734.676H727.808V630.248h147.875L857.252,734.676z
		 M908.968,630.248h124.712l-28.478,104.428H890.537L908.968,630.248z M437.411,866.18l-18.95-99.405h119.502l17.544,99.405H437.411
		z M695.028,630.248v104.428H565.584l-18.431-104.428H695.028z M541.488,598.15l-18.214-103.198h171.753V598.15H541.488z
		 M532.298,734.676H412.342l-19.908-104.428h121.433L532.298,734.676z M571.249,766.774h123.779v99.405H588.793L571.249,766.774z
		 M727.808,766.774h123.779l-17.544,99.405H727.808V766.774z M727.808,598.15V494.952h171.754L881.348,598.15H727.808z
		 M489.989,494.952l18.214,103.198H386.315l-19.673-103.198H489.989z M976.529,839.82c-4.232,15.521-18.422,26.36-34.509,26.36
		h-74.693l17.544-99.405h111.577L976.529,839.82z M1058.253,540.139l-15.82,58.01h-127.8l18.214-103.198h90.891
		c11.242,0,21.603,5.124,28.428,14.059C1058.992,517.947,1061.21,529.293,1058.253,540.139z"/>
	<path style="fill:#C1D1D3;" d="M2032.022,489.527c-12.948-16.952-32.607-26.673-53.936-26.673h-663.214l-23.554-123.555
		c-4.426-23.215-24.792-40.065-48.426-40.065h-118.495c-8.863,0-16.049,7.185-16.049,16.049s7.186,16.049,16.049,16.049h118.495
		c8.246,0,15.351,5.878,16.894,13.978l101.856,534.301l-22.455,41.366c-12.655,23.311-12.113,50.837,1.451,73.633
		c13.562,22.794,37.495,36.403,64.02,36.403h27.269c-25.896,10.402-44.19,35.729-44.19,65.345c0,38.887,31.524,70.411,70.411,70.411
		s70.411-31.524,70.411-70.411c0-29.616-18.294-54.944-44.19-65.345h335.728c-25.896,10.402-44.19,35.729-44.19,65.345
		c0,38.887,31.524,70.411,70.411,70.411c38.887,0,70.411-31.524,70.411-70.411c0-29.616-18.293-54.944-44.19-65.345h63.411
		c8.863,0,16.049-7.186,16.049-16.049s-7.186-16.049-16.049-16.049h-531.292c-15.095,0-28.716-7.746-36.435-20.719
		s-8.028-28.637-0.825-41.905l20.634-38.011h508.336c30.524,0,57.45-20.566,65.479-50.013l81.724-299.682
		C2049.181,528.004,2044.972,506.479,2032.022,489.527z M1811.599,734.676h-129.444V630.248h147.874L1811.599,734.676z
		 M1863.315,630.248h124.713l-28.478,104.428h-114.666L1863.315,630.248z M1391.759,866.18l-18.95-99.405h119.502l17.544,99.405
		H1391.759z M1649.375,630.248v104.428h-129.444l-18.43-104.428H1649.375z M1495.836,598.15l-18.213-103.198h171.752V598.15
		H1495.836z M1486.646,734.676H1366.69l-19.907-104.428h121.433L1486.646,734.676z M1525.597,766.774h123.779v99.405h-106.235
		L1525.597,766.774z M1682.155,766.774h123.779l-17.544,99.405h-106.235V766.774z M1682.155,598.15V494.952h171.752l-18.213,103.198
		H1682.155z M1444.337,494.952l18.213,103.198h-121.887l-19.673-103.198H1444.337z M1930.877,839.82
		c-4.232,15.521-18.423,26.36-34.51,26.36h-74.691l17.544-99.405h111.577L1930.877,839.82z M2012.601,540.139l-15.82,58.01H1868.98
		l18.213-103.198h90.893c11.24,0,21.603,5.124,28.428,14.06C2013.34,517.947,2015.558,529.293,2012.601,540.139z"/>
</g>
</svg>
